<svg width="56" height="56" viewBox="0 0 56 56" fill="none" xmlns="http://www.w3.org/2000/svg">
<path d="M47.25 15.75H8.75C7.7835 15.75 7 16.5335 7 17.5V45.5C7 46.4665 7.7835 47.25 8.75 47.25H47.25C48.2165 47.25 49 46.4665 49 45.5V17.5C49 16.5335 48.2165 15.75 47.25 15.75Z" stroke="white" stroke-width="3" stroke-linecap="round" stroke-linejoin="round"/>
<path d="M36.75 15.75V12.25C36.75 11.3217 36.3813 10.4315 35.7249 9.77513C35.0685 9.11875 34.1783 8.75 33.25 8.75H22.75C21.8217 8.75 20.9315 9.11875 20.2751 9.77513C19.6187 10.4315 19.25 11.3217 19.25 12.25V15.75" stroke="white" stroke-width="3" stroke-linecap="round" stroke-linejoin="round"/>
<path d="M7 35H49" stroke="white" stroke-width="3" stroke-linecap="round" stroke-linejoin="round"/>
</svg>
