<svg width="57" height="56" viewBox="0 0 57 56" fill="none" xmlns="http://www.w3.org/2000/svg">
<path d="M28.3086 15.75C31.6913 15.75 34.4336 13.0077 34.4336 9.625C34.4336 6.24226 31.6913 3.5 28.3086 3.5C24.9258 3.5 22.1836 6.24226 22.1836 9.625C22.1836 13.0077 24.9258 15.75 28.3086 15.75Z" stroke="white" stroke-width="3" stroke-linecap="round" stroke-linejoin="round"/>
<path d="M34.0012 29.4689L41.602 35.3807C42.0943 35.8729 42.762 36.1495 43.4582 36.1495C44.1544 36.1495 44.822 35.8729 45.3143 35.3807C45.8066 34.8884 46.0832 34.2207 46.0832 33.5245C46.0832 32.8283 45.8066 32.1606 45.3143 31.6683L36.6523 20.5314C36.2465 20.1245 35.7642 19.8019 35.2333 19.582C34.7024 19.3621 34.1333 19.2493 33.5587 19.25H23.0587C22.484 19.2493 21.9149 19.3621 21.384 19.582C20.8531 19.8019 20.3709 20.1245 19.9651 20.5314L11.303 31.6683C11.0593 31.9121 10.8659 32.2015 10.734 32.52C10.6021 32.8384 10.5342 33.1798 10.5342 33.5245C10.5342 33.8692 10.6021 34.2106 10.734 34.529C10.8659 34.8475 11.0593 35.1369 11.303 35.3807C11.5468 35.6244 11.8362 35.8178 12.1546 35.9497C12.4731 36.0816 12.8145 36.1495 13.1592 36.1495C13.5039 36.1495 13.8452 36.0816 14.1637 35.9497C14.4822 35.8178 14.7716 35.6244 15.0153 35.3807L22.6161 29.4689L16.5494 48.6301C16.2552 49.261 16.2237 49.983 16.4618 50.6373C16.6999 51.2915 17.1881 51.8243 17.8191 52.1185C18.4501 52.4127 19.1721 52.4443 19.8263 52.2061C20.4805 51.968 21.0133 51.4798 21.3075 50.8488L28.3087 39.8301L35.3098 50.8488C35.6049 51.4783 36.1377 51.9651 36.7913 52.2022C37.4449 52.4393 38.1658 52.4074 38.796 52.1136C39.4261 51.8198 39.9139 51.288 40.1524 50.6349C40.3908 49.9818 40.3605 49.2608 40.0679 48.6301L34.0012 29.4689Z" stroke="white" stroke-width="3" stroke-linecap="round" stroke-linejoin="round"/>
</svg>
