<svg width="57" height="56" viewBox="0 0 57 56" fill="none" xmlns="http://www.w3.org/2000/svg">
<g clip-path="url(#clip0_1106_83137)">
<path d="M46.4929 45.5814H10.832C10.832 35.772 18.7472 27.8251 28.5248 27.751C28.5777 27.7616 28.6201 27.7616 28.673 27.7616C28.7471 27.7616 28.8106 27.7616 28.8847 27.751C38.6305 27.8674 46.4929 35.8037 46.4929 45.5814Z" stroke="white" stroke-width="3" stroke-miterlimit="10" stroke-linecap="round" stroke-linejoin="round"/>
<path d="M28.8842 27.751C28.8101 27.7616 28.7467 27.7616 28.6726 27.7616C28.6197 27.7616 28.5773 27.7616 28.5244 27.751H28.8842Z" stroke="white" stroke-width="3" stroke-miterlimit="10" stroke-linecap="round" stroke-linejoin="round"/>
<path d="M36.4932 18.2486C36.4932 22.4918 33.1069 27.5923 28.8848 27.751C28.8107 27.7616 28.7472 27.7616 28.6732 27.7616C28.6203 27.7616 28.5779 27.7616 28.525 27.751C27.4033 27.7298 26.3451 27.3383 25.3928 26.7246C24.5568 26.1955 23.8055 25.4971 23.1812 24.6717C23.16 24.6612 23.1494 24.64 23.1283 24.6294C21.6997 22.7987 20.832 20.4178 20.832 18.2486C20.832 13.9311 24.3346 10.418 28.6732 10.418C32.9906 10.418 36.4932 13.9311 36.4932 18.2486Z" stroke="white" stroke-width="3" stroke-miterlimit="10" stroke-linecap="round" stroke-linejoin="round"/>
<path d="M37.3604 30.0157C39.1804 28.185 41.6989 27.0527 44.4819 27.0527C50.0162 27.0527 54.5135 31.55 54.5135 37.0843H44.3338" stroke="white" stroke-width="3" stroke-miterlimit="10" stroke-linecap="round" stroke-linejoin="round"/>
<path d="M48.8821 21.7063C48.8821 24.1378 46.9117 27.0573 44.4803 27.0573C43.8205 27.0573 43.1968 26.8404 42.6364 26.4788C42.1663 26.1805 41.7415 25.7828 41.389 25.3218C41.38 25.3128 41.3709 25.3038 41.3619 25.2947C40.5575 24.2643 40.0693 22.9266 40.0693 21.7063C40.0693 19.2749 42.0398 17.2954 44.4803 17.2954C46.9117 17.2954 48.8821 19.2749 48.8821 21.7063Z" stroke="white" stroke-width="3" stroke-miterlimit="10" stroke-linecap="round" stroke-linejoin="round"/>
<path d="M19.9639 30.0157C18.1544 28.185 15.6359 27.0527 12.8529 27.0527C7.30799 27.0527 2.82129 31.55 2.82129 37.0843H12.9904" stroke="white" stroke-width="3" stroke-miterlimit="10" stroke-linecap="round" stroke-linejoin="round"/>
<path d="M17.2591 21.7063C17.2591 24.1378 15.2886 27.0573 12.8572 27.0573C12.1974 27.0573 11.5737 26.8404 11.0133 26.4788C10.5433 26.1805 10.1185 25.7828 9.76597 25.3218C9.75692 25.3128 9.74787 25.3038 9.73888 25.2947C8.93442 24.2643 8.44629 22.9266 8.44629 21.7063C8.44629 19.2749 10.4168 17.2954 12.8572 17.2954C15.2886 17.2954 17.2591 19.2749 17.2591 21.7063Z" stroke="white" stroke-width="3" stroke-miterlimit="10" stroke-linecap="round" stroke-linejoin="round"/>
</g>
<defs>
<clipPath id="clip0_1106_83137">
<rect width="56" height="56" fill="white" transform="translate(0.666992)"/>
</clipPath>
</defs>
</svg>
