<svg width="56" height="56" viewBox="0 0 56 56" fill="none" xmlns="http://www.w3.org/2000/svg">
<path fill-rule="evenodd" clip-rule="evenodd" d="M7 15.1667C7 9.04117 7.06559 7 15.1667 7C23.2677 7 23.3333 9.04117 23.3333 15.1667C23.3333 21.2922 23.3592 23.3333 15.1667 23.3333C6.97416 23.3333 7 21.2922 7 15.1667Z" stroke="white" stroke-width="3" stroke-linecap="round" stroke-linejoin="round"/>
<path fill-rule="evenodd" clip-rule="evenodd" d="M32.667 15.1667C32.667 9.04117 32.7326 7 40.8337 7C48.9347 7 49.0003 9.04117 49.0003 15.1667C49.0003 21.2922 49.0262 23.3333 40.8337 23.3333C32.6412 23.3333 32.667 21.2922 32.667 15.1667Z" stroke="white" stroke-width="3" stroke-linecap="round" stroke-linejoin="round"/>
<path fill-rule="evenodd" clip-rule="evenodd" d="M7 40.8334C7 34.7079 7.06559 32.6667 15.1667 32.6667C23.2677 32.6667 23.3333 34.7079 23.3333 40.8334C23.3333 46.9589 23.3592 49.0001 15.1667 49.0001C6.97416 49.0001 7 46.9589 7 40.8334Z" stroke="white" stroke-width="3" stroke-linecap="round" stroke-linejoin="round"/>
<path fill-rule="evenodd" clip-rule="evenodd" d="M32.667 40.8334C32.667 34.7079 32.7326 32.6667 40.8337 32.6667C48.9347 32.6667 49.0003 34.7079 49.0003 40.8334C49.0003 46.9589 49.0262 49.0001 40.8337 49.0001C32.6412 49.0001 32.667 46.9589 32.667 40.8334Z" stroke="white" stroke-width="3" stroke-linecap="round" stroke-linejoin="round"/>
</svg>
